<mxfile host="app.diagrams.net" modified="2024-02-11T10:08:05.649Z" agent="Mozilla/5.0 (Windows NT 10.0; Win64; x64) AppleWebKit/537.36 (KHTML, like Gecko) Chrome/121.0.0.0 Safari/537.36 Edg/121.0.0.0" etag="rrtz2k0EUkGqr9N93sA0" version="23.1.2" type="device">
  <diagram name="Страница — 1" id="LjP-SMXbt3aF3taORO5-">
    <mxGraphModel dx="1042" dy="1746" grid="1" gridSize="10" guides="1" tooltips="1" connect="1" arrows="1" fold="1" page="1" pageScale="1" pageWidth="827" pageHeight="1169" math="0" shadow="0">
      <root>
        <mxCell id="0" />
        <mxCell id="1" parent="0" />
        <mxCell id="Ph3D6FclOzKC584aR-1m-20" style="rounded=0;orthogonalLoop=1;jettySize=auto;html=1;exitX=1;exitY=0.3333333333333333;exitDx=0;exitDy=0;exitPerimeter=0;entryX=0;entryY=0.5;entryDx=0;entryDy=0;" edge="1" parent="1" source="Ph3D6FclOzKC584aR-1m-1" target="Ph3D6FclOzKC584aR-1m-13">
          <mxGeometry relative="1" as="geometry" />
        </mxCell>
        <mxCell id="Ph3D6FclOzKC584aR-1m-21" style="rounded=0;orthogonalLoop=1;jettySize=auto;html=1;exitX=1;exitY=0.3333333333333333;exitDx=0;exitDy=0;exitPerimeter=0;entryX=0;entryY=0.5;entryDx=0;entryDy=0;" edge="1" parent="1" source="Ph3D6FclOzKC584aR-1m-1" target="Ph3D6FclOzKC584aR-1m-14">
          <mxGeometry relative="1" as="geometry" />
        </mxCell>
        <mxCell id="Ph3D6FclOzKC584aR-1m-22" style="rounded=0;orthogonalLoop=1;jettySize=auto;html=1;exitX=1;exitY=0.3333333333333333;exitDx=0;exitDy=0;exitPerimeter=0;entryX=0;entryY=0.5;entryDx=0;entryDy=0;" edge="1" parent="1" source="Ph3D6FclOzKC584aR-1m-1" target="Ph3D6FclOzKC584aR-1m-16">
          <mxGeometry relative="1" as="geometry">
            <mxPoint x="80" y="271" as="sourcePoint" />
          </mxGeometry>
        </mxCell>
        <mxCell id="Ph3D6FclOzKC584aR-1m-23" style="rounded=0;orthogonalLoop=1;jettySize=auto;html=1;exitX=1;exitY=0.3333333333333333;exitDx=0;exitDy=0;exitPerimeter=0;entryX=0;entryY=0.5;entryDx=0;entryDy=0;" edge="1" parent="1" source="Ph3D6FclOzKC584aR-1m-1" target="Ph3D6FclOzKC584aR-1m-17">
          <mxGeometry relative="1" as="geometry" />
        </mxCell>
        <mxCell id="Ph3D6FclOzKC584aR-1m-24" style="rounded=0;orthogonalLoop=1;jettySize=auto;html=1;exitX=1;exitY=0.3333333333333333;exitDx=0;exitDy=0;exitPerimeter=0;entryX=0;entryY=0.5;entryDx=0;entryDy=0;" edge="1" parent="1" source="Ph3D6FclOzKC584aR-1m-1" target="Ph3D6FclOzKC584aR-1m-19">
          <mxGeometry relative="1" as="geometry" />
        </mxCell>
        <mxCell id="Ph3D6FclOzKC584aR-1m-1" value="Пользователь" style="shape=umlActor;verticalLabelPosition=bottom;verticalAlign=top;html=1;outlineConnect=0;" vertex="1" parent="1">
          <mxGeometry x="50" y="259" width="30" height="60" as="geometry" />
        </mxCell>
        <mxCell id="Ph3D6FclOzKC584aR-1m-25" style="rounded=0;orthogonalLoop=1;jettySize=auto;html=1;exitX=0;exitY=0.3333333333333333;exitDx=0;exitDy=0;exitPerimeter=0;entryX=1;entryY=0.5;entryDx=0;entryDy=0;" edge="1" parent="1" source="Ph3D6FclOzKC584aR-1m-2" target="Ph3D6FclOzKC584aR-1m-13">
          <mxGeometry relative="1" as="geometry" />
        </mxCell>
        <mxCell id="Ph3D6FclOzKC584aR-1m-26" style="rounded=0;orthogonalLoop=1;jettySize=auto;html=1;exitX=0;exitY=0.3333333333333333;exitDx=0;exitDy=0;exitPerimeter=0;entryX=1;entryY=0.5;entryDx=0;entryDy=0;" edge="1" parent="1" source="Ph3D6FclOzKC584aR-1m-2" target="Ph3D6FclOzKC584aR-1m-15">
          <mxGeometry relative="1" as="geometry" />
        </mxCell>
        <mxCell id="Ph3D6FclOzKC584aR-1m-27" style="edgeStyle=orthogonalEdgeStyle;rounded=0;orthogonalLoop=1;jettySize=auto;html=1;exitX=0;exitY=0.3333333333333333;exitDx=0;exitDy=0;exitPerimeter=0;entryX=1;entryY=0.5;entryDx=0;entryDy=0;" edge="1" parent="1" source="Ph3D6FclOzKC584aR-1m-2" target="Ph3D6FclOzKC584aR-1m-16">
          <mxGeometry relative="1" as="geometry" />
        </mxCell>
        <mxCell id="Ph3D6FclOzKC584aR-1m-28" style="rounded=0;orthogonalLoop=1;jettySize=auto;html=1;exitX=0;exitY=0.3333333333333333;exitDx=0;exitDy=0;exitPerimeter=0;entryX=1;entryY=0.5;entryDx=0;entryDy=0;" edge="1" parent="1" source="Ph3D6FclOzKC584aR-1m-2" target="Ph3D6FclOzKC584aR-1m-18">
          <mxGeometry relative="1" as="geometry" />
        </mxCell>
        <mxCell id="Ph3D6FclOzKC584aR-1m-29" style="rounded=0;orthogonalLoop=1;jettySize=auto;html=1;exitX=0;exitY=0.3333333333333333;exitDx=0;exitDy=0;exitPerimeter=0;entryX=1;entryY=0.5;entryDx=0;entryDy=0;" edge="1" parent="1" source="Ph3D6FclOzKC584aR-1m-2" target="Ph3D6FclOzKC584aR-1m-19">
          <mxGeometry relative="1" as="geometry" />
        </mxCell>
        <mxCell id="Ph3D6FclOzKC584aR-1m-2" value="Тур-оператор" style="shape=umlActor;verticalLabelPosition=bottom;verticalAlign=top;html=1;outlineConnect=0;" vertex="1" parent="1">
          <mxGeometry x="737" y="259" width="30" height="60" as="geometry" />
        </mxCell>
        <mxCell id="Ph3D6FclOzKC584aR-1m-13" value="Поиск/фильтрация туров" style="ellipse;whiteSpace=wrap;html=1;" vertex="1" parent="1">
          <mxGeometry x="354" y="-19" width="120" height="50" as="geometry" />
        </mxCell>
        <mxCell id="Ph3D6FclOzKC584aR-1m-14" value="Онлайн - бронирование тура" style="ellipse;whiteSpace=wrap;html=1;" vertex="1" parent="1">
          <mxGeometry x="354" y="71" width="120" height="50" as="geometry" />
        </mxCell>
        <mxCell id="Ph3D6FclOzKC584aR-1m-15" value="Добавление, удаление, изменение тура" style="ellipse;whiteSpace=wrap;html=1;" vertex="1" parent="1">
          <mxGeometry x="354" y="161" width="120" height="50" as="geometry" />
        </mxCell>
        <mxCell id="Ph3D6FclOzKC584aR-1m-16" value="Просмотр информации о пользователе" style="ellipse;whiteSpace=wrap;html=1;" vertex="1" parent="1">
          <mxGeometry x="354" y="254" width="120" height="50" as="geometry" />
        </mxCell>
        <mxCell id="Ph3D6FclOzKC584aR-1m-17" value="Выставление оценки туру" style="ellipse;whiteSpace=wrap;html=1;" vertex="1" parent="1">
          <mxGeometry x="354" y="341" width="120" height="50" as="geometry" />
        </mxCell>
        <mxCell id="Ph3D6FclOzKC584aR-1m-18" value="Предоставление скидок на тур" style="ellipse;whiteSpace=wrap;html=1;" vertex="1" parent="1">
          <mxGeometry x="354" y="431" width="120" height="50" as="geometry" />
        </mxCell>
        <mxCell id="Ph3D6FclOzKC584aR-1m-19" value="Обратная связь" style="ellipse;whiteSpace=wrap;html=1;" vertex="1" parent="1">
          <mxGeometry x="354" y="521" width="120" height="50" as="geometry" />
        </mxCell>
      </root>
    </mxGraphModel>
  </diagram>
</mxfile>
